{
  "accessors": [
    {
      "bufferView": 2,
      "componentType": 5126,
      "count": 2596,
      "max": [
        1.6471879482269287,
        2.4174020290374756,
        4.950240135192871
      ],
      "min": [
        -1.644428014755249,
        2.3882811069488525,
        0.49962499737739563
      ],
      "type": "VEC3"
    },
    {
      "bufferView": 2,
      "byteOffset": 31152,
      "componentType": 5126,
      "count": 2596,
      "max": [
        1.0,
        1.0,
        0.9933606386184692
      ],
      "min": [
        -1.0,
        -1.0,
        -0.9933512806892395
      ],
      "type": "VEC3"
    },
    {
      "bufferView": 1,
      "componentType": 5126,
      "count": 2596,
      "max": [
        0.5030530095100403,
        0.15349000692367554
      ],
      "min": [
        0.1557299941778183,
        0.03371400013566017
      ],
      "type": "VEC2"
    },
    {
      "bufferView": 0,
      "componentType": 5125,
      "count": 10896,
      "type": "SCALAR"
    },
    {
      "bufferView": 2,
      "byteOffset": 62304,
      "componentType": 5126,
      "count": 2749,
      "max": [
        1.781227946281433,
        3.8208069801330566,
        5.987186908721924
      ],
      "min": [
        -1.7812269926071167,
        2.3556809425354004,
        -0.3897930085659027
      ],
      "type": "VEC3"
    },
    {
      "bufferView": 2,
      "byteOffset": 95292,
      "componentType": 5126,
      "count": 2749,
      "max": [
        1.0,
        1.0,
        1.0
      ],
      "min": [
        -1.0,
        -1.0,
        -1.0
      ],
      "type": "VEC3"
    },
    {
      "bufferView": 3,
      "componentType": 5126,
      "count": 2749,
      "max": [
        1.0,
        1.0,
        1.0,
        1.0
      ],
      "min": [
        -1.0,
        -1.0,
        -1.0,
        -1.0
      ],
      "type": "VEC4"
    },
    {
      "bufferView": 1,
      "byteOffset": 20768,
      "componentType": 5126,
      "count": 2749,
      "max": [
        0.9783080220222473,
        0.9903259873390198
      ],
      "min": [
        0.008484000340104103,
        0.017232000827789307
      ],
      "type": "VEC2"
    },
    {
      "bufferView": 0,
      "byteOffset": 43584,
      "componentType": 5125,
      "count": 8838,
      "type": "SCALAR"
    },
    {
      "bufferView": 2,
      "byteOffset": 128280,
      "componentType": 5126,
      "count": 1984,
      "max": [
        0.16244499385356903,
        2.3581271171569824,
        3.0610430240631104
      ],
      "min": [
        -0.15387600660324097,
        2.266592025756836,
        1.9465830326080322
      ],
      "type": "VEC3"
    },
    {
      "bufferView": 2,
      "byteOffset": 152088,
      "componentType": 5126,
      "count": 1984,
      "max": [
        1.0,
        1.0,
        1.0
      ],
      "min": [
        -1.0,
        -1.0,
        -1.0
      ],
      "type": "VEC3"
    },
    {
      "bufferView": 3,
      "byteOffset": 43984,
      "componentType": 5126,
      "count": 1984,
      "max": [
        1.0,
        1.0,
        0.999866783618927,
        1.0
      ],
      "min": [
        -1.0,
        -1.0,
        -1.0,
        -1.0
      ],
      "type": "VEC4"
    },
    {
      "bufferView": 1,
      "byteOffset": 42760,
      "componentType": 5126,
      "count": 1984,
      "max": [
        0.913457989692688,
        0.9532189965248108
      ],
      "min": [
        0.015482000075280666,
        0.03373099863529205
      ],
      "type": "VEC2"
    },
    {
      "bufferView": 0,
      "byteOffset": 78936,
      "componentType": 5125,
      "count": 5592,
      "type": "SCALAR"
    }
  ],
  "asset": {
    "extras": {
      "author": "seenoise (https://sketchfab.com/seenoise)",
      "license": "CC-BY-4.0 (http://creativecommons.org/licenses/by/4.0/)",
      "source": "https://sketchfab.com/3d-models/warn-wardrobe-b3a99e956be64ab6958f7f5e1895f031",
      "title": "Warn Wardrobe"
    },
    "generator": "Sketchfab-12.68.0",
    "version": "2.0"
  },
  "bufferViews": [
    {
      "buffer": 0,
      "byteLength": 101304,
      "name": "floatBufferViews",
      "target": 34963
    },
    {
      "buffer": 0,
      "byteLength": 58632,
      "byteOffset": 101304,
      "byteStride": 8,
      "name": "floatBufferViews",
      "target": 34962
    },
    {
      "buffer": 0,
      "byteLength": 175896,
      "byteOffset": 159936,
      "byteStride": 12,
      "name": "floatBufferViews",
      "target": 34962
    },
    {
      "buffer": 0,
      "byteLength": 75728,
      "byteOffset": 335832,
      "byteStride": 16,
      "name": "floatBufferViews",
      "target": 34962
    }
  ],
  "buffers": [
    {
      "byteLength": 411560,
      "uri": "scene.bin"
    }
  ],
  "images": [
    {
      "uri": "textures/DoorHinge_baseColor.png"
    },
    {
      "uri": "textures/DoorHinge_metallicRoughness.png"
    },
    {
      "uri": "textures/material_baseColor.png"
    },
    {
      "uri": "textures/material_metallicRoughness.png"
    },
    {
      "uri": "textures/material_normal.png"
    },
    {
      "uri": "textures/Wardrobe_baseColor.png"
    },
    {
      "uri": "textures/Wardrobe_metallicRoughness.png"
    },
    {
      "uri": "textures/Wardrobe_normal.png"
    }
  ],
  "materials": [
    {
      "doubleSided": true,
      "name": "DoorHinge",
      "pbrMetallicRoughness": {
        "baseColorTexture": {
          "index": 0
        },
        "metallicRoughnessTexture": {
          "index": 1
        },
        "roughnessFactor": 0.843491542
      }
    },
    {
      "doubleSided": true,
      "name": "material",
      "normalTexture": {
        "index": 4,
        "scale": 0.3980564024
      },
      "pbrMetallicRoughness": {
        "baseColorTexture": {
          "index": 2
        },
        "metallicRoughnessTexture": {
          "index": 3
        },
        "roughnessFactor": 0.6419588415
      }
    },
    {
      "doubleSided": true,
      "name": "Wardrobe",
      "normalTexture": {
        "index": 7,
        "scale": 0.8675685976
      },
      "pbrMetallicRoughness": {
        "baseColorTexture": {
          "index": 5
        },
        "metallicFactor": 0.770007622,
        "metallicRoughnessTexture": {
          "index": 6
        }
      }
    }
  ],
  "meshes": [
    {
      "name": "Object_0",
      "primitives": [
        {
          "attributes": {
            "NORMAL": 1,
            "POSITION": 0,
            "TEXCOORD_0": 2
          },
          "indices": 3,
          "material": 0,
          "mode": 4
        }
      ]
    },
    {
      "name": "Object_1",
      "primitives": [
        {
          "attributes": {
            "NORMAL": 5,
            "POSITION": 4,
            "TANGENT": 6,
            "TEXCOORD_0": 7
          },
          "indices": 8,
          "material": 2,
          "mode": 4
        }
      ]
    },
    {
      "name": "Object_2",
      "primitives": [
        {
          "attributes": {
            "NORMAL": 10,
            "POSITION": 9,
            "TANGENT": 11,
            "TEXCOORD_0": 12
          },
          "indices": 13,
          "material": 1,
          "mode": 4
        }
      ]
    }
  ],
  "nodes": [
    {
      "children": [
        1
      ],
      "matrix": [
        0.3629017472267151,
        0.0,
        0.0,
        0.0,
        0.0,
        8.058037508955953e-17,
        -0.3629017472267151,
        0.0,
        0.0,
        0.3629017472267151,
        8.058037508955953e-17,
        0.0,
        0.0,
        0.0,
        0.0,
        1.0
      ],
      "name": "Sketchfab_model"
    },
    {
      "children": [
        2,
        3,
        4
      ],
      "name": "wardrobe_low.obj.cleaner.materialmerger.gles"
    },
    {
      "mesh": 0,
      "name": "Object_2"
    },
    {
      "mesh": 1,
      "name": "Object_3"
    },
    {
      "mesh": 2,
      "name": "Object_4"
    }
  ],
  "samplers": [
    {
      "magFilter": 9729,
      "minFilter": 9987,
      "wrapS": 10497,
      "wrapT": 10497
    }
  ],
  "scene": 0,
  "scenes": [
    {
      "name": "Sketchfab_Scene",
      "nodes": [
        0
      ]
    }
  ],
  "textures": [
    {
      "sampler": 0,
      "source": 0
    },
    {
      "sampler": 0,
      "source": 1
    },
    {
      "sampler": 0,
      "source": 2
    },
    {
      "sampler": 0,
      "source": 3
    },
    {
      "sampler": 0,
      "source": 4
    },
    {
      "sampler": 0,
      "source": 5
    },
    {
      "sampler": 0,
      "source": 6
    },
    {
      "sampler": 0,
      "source": 7
    }
  ]
}
