{
  "accessors": [
    {
      "bufferView": 2,
      "componentType": 5126,
      "count": 403,
      "max": [
        94.48818969726563,
        118.11024475097656,
        236.0694580078125
      ],
      "min": [
        -106.18496704101563,
        -118.11024475097656,
        9.842514038085938
      ],
      "type": "VEC3"
    },
    {
      "bufferView": 2,
      "byteOffset": 4836,
      "componentType": 5126,
      "count": 403,
      "max": [
        1.0,
        1.0,
        1.0
      ],
      "min": [
        -1.0,
        -1.0,
        -1.0
      ],
      "type": "VEC3"
    },
    {
      "bufferView": 3,
      "componentType": 5126,
      "count": 403,
      "max": [
        1.0,
        1.0,
        0.5483931303024292,
        1.0
      ],
      "min": [
        -1.0,
        -1.0,
        -0.4988749623298645,
        1.0
      ],
      "type": "VEC4"
    },
    {
      "bufferView": 1,
      "componentType": 5126,
      "count": 403,
      "max": [
        5.997002601623535,
        5.997002601623535
      ],
      "min": [
        0.0029976367950439453,
        0.002997100353240967
      ],
      "type": "VEC2"
    },
    {
      "bufferView": 1,
      "byteOffset": 3224,
      "componentType": 5126,
      "count": 403,
      "max": [
        5.997002601623535,
        5.997002601623535
      ],
      "min": [
        0.0029976367950439453,
        0.002997100353240967
      ],
      "type": "VEC2"
    },
    {
      "bufferView": 0,
      "componentType": 5125,
      "count": 792,
      "type": "SCALAR"
    },
    {
      "bufferView": 2,
      "byteOffset": 9672,
      "componentType": 5126,
      "count": 50,
      "max": [
        90.31226348876953,
        112.79564666748047,
        110.23622131347656
      ],
      "min": [
        -106.18496704101563,
        -112.69562530517578,
        9.842514038085938
      ],
      "type": "VEC3"
    },
    {
      "bufferView": 2,
      "byteOffset": 10272,
      "componentType": 5126,
      "count": 50,
      "max": [
        3.0058336619731563e-07,
        2.1495614532796026e-07,
        1.0
      ],
      "min": [
        -2.8311418986959325e-07,
        -6.06896833232895e-07,
        1.0
      ],
      "type": "VEC3"
    },
    {
      "bufferView": 3,
      "byteOffset": 6448,
      "componentType": 5126,
      "count": 50,
      "max": [
        1.0,
        5.934327305112674e-07,
        2.8311418986959325e-07,
        1.0
      ],
      "min": [
        1.0,
        -7.843268576834816e-07,
        -3.0058336619731563e-07,
        -1.0
      ],
      "type": "VEC4"
    },
    {
      "bufferView": 1,
      "byteOffset": 6448,
      "componentType": 5126,
      "count": 50,
      "max": [
        3.99800181388855,
        3.99800181388855
      ],
      "min": [
        0.0019981861114501953,
        0.0019981861114501953
      ],
      "type": "VEC2"
    },
    {
      "bufferView": 1,
      "byteOffset": 6848,
      "componentType": 5126,
      "count": 50,
      "max": [
        3.99800181388855,
        3.99800181388855
      ],
      "min": [
        0.0019981861114501953,
        0.0019981861114501953
      ],
      "type": "VEC2"
    },
    {
      "bufferView": 0,
      "byteOffset": 3168,
      "componentType": 5125,
      "count": 84,
      "type": "SCALAR"
    },
    {
      "bufferView": 2,
      "byteOffset": 10872,
      "componentType": 5126,
      "count": 677,
      "max": [
        98.22093963623047,
        130.51812744140625,
        240.77285766601563
      ],
      "min": [
        -115.39990234375,
        -131.83847045898438,
        -2.857180447790597e-07
      ],
      "type": "VEC3"
    },
    {
      "bufferView": 2,
      "byteOffset": 18996,
      "componentType": 5126,
      "count": 677,
      "max": [
        1.0,
        1.0,
        1.0
      ],
      "min": [
        -1.0,
        -1.0,
        -1.0
      ],
      "type": "VEC3"
    },
    {
      "bufferView": 3,
      "byteOffset": 7248,
      "componentType": 5126,
      "count": 677,
      "max": [
        1.0,
        1.0,
        1.0,
        1.0
      ],
      "min": [
        -1.0,
        -1.0,
        -1.0,
        -1.0
      ],
      "type": "VEC4"
    },
    {
      "bufferView": 1,
      "byteOffset": 7248,
      "componentType": 5126,
      "count": 677,
      "max": [
        5.997002124786377,
        5.997002124786377
      ],
      "min": [
        -0.15199172496795654,
        -0.03531955927610397
      ],
      "type": "VEC2"
    },
    {
      "bufferView": 1,
      "byteOffset": 12664,
      "componentType": 5126,
      "count": 677,
      "max": [
        5.997002124786377,
        5.997002124786377
      ],
      "min": [
        -0.15199172496795654,
        -0.03531955927610397
      ],
      "type": "VEC2"
    },
    {
      "bufferView": 0,
      "byteOffset": 3504,
      "componentType": 5125,
      "count": 1356,
      "type": "SCALAR"
    },
    {
      "bufferView": 2,
      "byteOffset": 27120,
      "componentType": 5126,
      "count": 24,
      "max": [
        101.64022064208984,
        129.53387451171875,
        243.92247009277344
      ],
      "min": [
        -119.0573501586914,
        -130.85421752929688,
        97.7054214477539
      ],
      "type": "VEC3"
    },
    {
      "bufferView": 2,
      "byteOffset": 27408,
      "componentType": 5126,
      "count": 24,
      "max": [
        0.9627103805541992,
        5.5069428128717846e-08,
        0.8690842390060425
      ],
      "min": [
        -0.9397481679916382,
        -5.678832337707718e-08,
        0.2705344259738922
      ],
      "type": "VEC3"
    },
    {
      "bufferView": 3,
      "byteOffset": 18080,
      "componentType": 5126,
      "count": 24,
      "max": [
        4.9946496716302136e-08,
        1.0,
        1.4705234718803695e-07,
        1.0
      ],
      "min": [
        -2.5586631480223332e-08,
        -1.0,
        -3.691421923690541e-08,
        1.0
      ],
      "type": "VEC4"
    },
    {
      "bufferView": 1,
      "byteOffset": 18080,
      "componentType": 5126,
      "count": 24,
      "max": [
        3.998002052307129,
        1.9990012645721436
      ],
      "min": [
        0.0019979476928710938,
        0.0009990930557250977
      ],
      "type": "VEC2"
    },
    {
      "bufferView": 1,
      "byteOffset": 18272,
      "componentType": 5126,
      "count": 24,
      "max": [
        3.998002052307129,
        1.9990012645721436
      ],
      "min": [
        0.0019979476928710938,
        0.0009990930557250977
      ],
      "type": "VEC2"
    },
    {
      "bufferView": 0,
      "byteOffset": 8928,
      "componentType": 5125,
      "count": 24,
      "type": "SCALAR"
    },
    {
      "bufferView": 2,
      "byteOffset": 27696,
      "componentType": 5126,
      "count": 1803,
      "max": [
        118.25619506835938,
        157.94944763183594,
        244.70986938476563
      ],
      "min": [
        -119.10247802734375,
        -131.83847045898438,
        -2.857180447790597e-07
      ],
      "type": "VEC3"
    },
    {
      "bufferView": 2,
      "byteOffset": 49332,
      "componentType": 5126,
      "count": 1803,
      "max": [
        1.0,
        1.0,
        1.0
      ],
      "min": [
        -1.0,
        -1.0,
        -1.0
      ],
      "type": "VEC3"
    },
    {
      "bufferView": 1,
      "byteOffset": 18464,
      "componentType": 5126,
      "count": 1803,
      "max": [
        65.30874633789063,
        16.501293182373047
      ],
      "min": [
        -64.30874633789063,
        -74.22433471679688
      ],
      "type": "VEC2"
    },
    {
      "bufferView": 1,
      "byteOffset": 32888,
      "componentType": 5126,
      "count": 1803,
      "max": [
        65.30874633789063,
        16.501293182373047
      ],
      "min": [
        -64.30874633789063,
        -74.22433471679688
      ],
      "type": "VEC2"
    },
    {
      "bufferView": 0,
      "byteOffset": 9024,
      "componentType": 5125,
      "count": 2550,
      "type": "SCALAR"
    },
    {
      "bufferView": 2,
      "byteOffset": 70968,
      "componentType": 5126,
      "count": 340,
      "max": [
        112.31056213378906,
        157.574462890625,
        109.433349609375
      ],
      "min": [
        -73.03805541992188,
        112.79560089111328,
        1.1175482273101807
      ],
      "type": "VEC3"
    },
    {
      "bufferView": 2,
      "byteOffset": 75048,
      "componentType": 5126,
      "count": 340,
      "max": [
        1.0,
        1.0,
        1.0
      ],
      "min": [
        -1.0,
        -1.0,
        -1.0
      ],
      "type": "VEC3"
    },
    {
      "bufferView": 3,
      "byteOffset": 18464,
      "componentType": 5126,
      "count": 340,
      "max": [
        1.0,
        1.0,
        0.7766501903533936,
        1.0
      ],
      "min": [
        -1.0,
        -1.0,
        -0.49516111612319946,
        -1.0
      ],
      "type": "VEC4"
    },
    {
      "bufferView": 1,
      "byteOffset": 47312,
      "componentType": 5126,
      "count": 340,
      "max": [
        1.8497347831726074,
        2.2955875396728516
      ],
      "min": [
        -0.8497347831726074,
        -0.09501934051513672
      ],
      "type": "VEC2"
    },
    {
      "bufferView": 1,
      "byteOffset": 50032,
      "componentType": 5126,
      "count": 340,
      "max": [
        1.8497347831726074,
        2.2955875396728516
      ],
      "min": [
        -0.8497347831726074,
        -0.09501934051513672
      ],
      "type": "VEC2"
    },
    {
      "bufferView": 0,
      "byteOffset": 19224,
      "componentType": 5125,
      "count": 534,
      "type": "SCALAR"
    },
    {
      "bufferView": 2,
      "byteOffset": 79128,
      "componentType": 5126,
      "count": 144,
      "max": [
        56.228668212890625,
        79.60436248779297,
        184.79087829589844
      ],
      "min": [
        -65.08133697509766,
        -116.19154357910156,
        111.68741607666016
      ],
      "type": "VEC3"
    },
    {
      "bufferView": 2,
      "byteOffset": 80856,
      "componentType": 5126,
      "count": 144,
      "max": [
        1.0,
        1.0,
        1.0
      ],
      "min": [
        -1.0,
        -1.0,
        -1.0
      ],
      "type": "VEC3"
    },
    {
      "bufferView": 1,
      "byteOffset": 52752,
      "componentType": 5126,
      "count": 144,
      "max": [
        1.0,
        1.0
      ],
      "min": [
        0.0,
        0.0
      ],
      "type": "VEC2"
    },
    {
      "bufferView": 0,
      "byteOffset": 21360,
      "componentType": 5125,
      "count": 216,
      "type": "SCALAR"
    },
    {
      "bufferView": 2,
      "byteOffset": 82584,
      "componentType": 5126,
      "count": 296,
      "max": [
        35.4948844909668,
        -116.79877471923828,
        173.5772247314453
      ],
      "min": [
        -38.4309196472168,
        -117.46807861328125,
        139.71546936035156
      ],
      "type": "VEC3"
    },
    {
      "bufferView": 2,
      "byteOffset": 86136,
      "componentType": 5126,
      "count": 296,
      "max": [
        0.9953563809394836,
        0.9953563213348389,
        1.0
      ],
      "min": [
        -0.9953565001487732,
        -0.9953563213348389,
        -1.0
      ],
      "type": "VEC3"
    },
    {
      "bufferView": 1,
      "byteOffset": 53904,
      "componentType": 5126,
      "count": 296,
      "max": [
        1.0,
        1.0
      ],
      "min": [
        3.794549385816026e-08,
        0.0
      ],
      "type": "VEC2"
    },
    {
      "bufferView": 0,
      "byteOffset": 22224,
      "componentType": 5125,
      "count": 1536,
      "type": "SCALAR"
    }
  ],
  "asset": {
    "extras": {
      "author": "alex999m (https://sketchfab.com/alex999m)",
      "license": "CC-BY-4.0 (http://creativecommons.org/licenses/by/4.0/)",
      "source": "https://sketchfab.com/3d-models/dachniy-house-f9ec879f26d448b585329187cb580809",
      "title": "Dachniy House"
    },
    "generator": "Sketchfab-12.68.0",
    "version": "2.0"
  },
  "bufferViews": [
    {
      "buffer": 0,
      "byteLength": 28368,
      "name": "floatBufferViews",
      "target": 34963
    },
    {
      "buffer": 0,
      "byteLength": 56272,
      "byteOffset": 28368,
      "byteStride": 8,
      "name": "floatBufferViews",
      "target": 34962
    },
    {
      "buffer": 0,
      "byteLength": 89688,
      "byteOffset": 84640,
      "byteStride": 12,
      "name": "floatBufferViews",
      "target": 34962
    },
    {
      "buffer": 0,
      "byteLength": 23904,
      "byteOffset": 174328,
      "byteStride": 16,
      "name": "floatBufferViews",
      "target": 34962
    }
  ],
  "buffers": [
    {
      "byteLength": 198232,
      "uri": "scene.bin"
    }
  ],
  "extensionsUsed": [
    "KHR_materials_transmission"
  ],
  "images": [
    {
      "uri": "textures/Wood4_Steny_vnutri_baseColor.png"
    },
    {
      "uri": "textures/Wood4_Steny_vnutri_normal.jpeg"
    },
    {
      "uri": "textures/Wood3_Pol_baseColor.png"
    },
    {
      "uri": "textures/Wood3_Pol_normal.png"
    },
    {
      "uri": "textures/Wood_baseColor.png"
    },
    {
      "uri": "textures/Wood_normal.jpeg"
    },
    {
      "uri": "textures/Shifer_baseColor.png"
    },
    {
      "uri": "textures/Shifer_normal.png"
    },
    {
      "uri": "textures/Wood2_baseColor.png"
    },
    {
      "uri": "textures/Wood5_Doski_porog_baseColor.png"
    },
    {
      "uri": "textures/Wood5_Doski_porog_normal.png"
    }
  ],
  "materials": [
    {
      "doubleSided": true,
      "name": "Wood4_Steny_vnutri",
      "normalTexture": {
        "index": 1
      },
      "pbrMetallicRoughness": {
        "baseColorTexture": {
          "index": 0
        },
        "metallicFactor": 0.0,
        "roughnessFactor": 0.9084269017
      }
    },
    {
      "doubleSided": true,
      "name": "Wood3_Pol",
      "normalTexture": {
        "index": 3,
        "scale": 0.4529344512
      },
      "pbrMetallicRoughness": {
        "baseColorTexture": {
          "index": 2
        },
        "metallicFactor": 0.6358612805,
        "roughnessFactor": 0.2212271341
      }
    },
    {
      "doubleSided": true,
      "name": "Wood",
      "normalTexture": {
        "index": 5
      },
      "pbrMetallicRoughness": {
        "baseColorTexture": {
          "index": 4
        },
        "metallicFactor": 0.0,
        "roughnessFactor": 0.8929713596
      }
    },
    {
      "doubleSided": true,
      "name": "Shifer",
      "normalTexture": {
        "index": 7
      },
      "pbrMetallicRoughness": {
        "baseColorTexture": {
          "index": 6
        },
        "metallicFactor": 0.0,
        "roughnessFactor": 0.8929713596
      }
    },
    {
      "doubleSided": true,
      "name": "Wood2",
      "pbrMetallicRoughness": {
        "baseColorTexture": {
          "index": 8
        },
        "metallicFactor": 0.0,
        "roughnessFactor": 0.9129192073
      }
    },
    {
      "doubleSided": true,
      "name": "Wood5_Doski_porog",
      "normalTexture": {
        "index": 10
      },
      "pbrMetallicRoughness": {
        "baseColorTexture": {
          "index": 9
        },
        "metallicFactor": 0.0,
        "roughnessFactor": 0.8929713596
      }
    },
    {
      "alphaMode": "BLEND",
      "doubleSided": true,
      "extensions": {
        "KHR_materials_transmission": {
          "transmissionFactor": 0.7787728658999999
        }
      },
      "name": "Glass",
      "pbrMetallicRoughness": {
        "baseColorFactor": [
          0.368627,
          0.435294,
          0.533333,
          0.25
        ],
        "metallicFactor": 0.0,
        "roughnessFactor": 0.8704960069000001
      }
    },
    {
      "doubleSided": true,
      "name": "Metall",
      "pbrMetallicRoughness": {
        "baseColorFactor": [
          0.309804,
          0.360784,
          0.529412,
          1.0
        ],
        "metallicFactor": 0.0,
        "roughnessFactor": 0.9035403502
      }
    }
  ],
  "meshes": [
    {
      "name": "House_Wood4_Steny_vnutri_0",
      "primitives": [
        {
          "attributes": {
            "NORMAL": 1,
            "POSITION": 0,
            "TANGENT": 2,
            "TEXCOORD_0": 3,
            "TEXCOORD_1": 4
          },
          "indices": 5,
          "material": 0,
          "mode": 4
        }
      ]
    },
    {
      "name": "House_Wood3_Pol_0",
      "primitives": [
        {
          "attributes": {
            "NORMAL": 7,
            "POSITION": 6,
            "TANGENT": 8,
            "TEXCOORD_0": 9,
            "TEXCOORD_1": 10
          },
          "indices": 11,
          "material": 1,
          "mode": 4
        }
      ]
    },
    {
      "name": "House_Wood_0",
      "primitives": [
        {
          "attributes": {
            "NORMAL": 13,
            "POSITION": 12,
            "TANGENT": 14,
            "TEXCOORD_0": 15,
            "TEXCOORD_1": 16
          },
          "indices": 17,
          "material": 2,
          "mode": 4
        }
      ]
    },
    {
      "name": "House_Shifer_0",
      "primitives": [
        {
          "attributes": {
            "NORMAL": 19,
            "POSITION": 18,
            "TANGENT": 20,
            "TEXCOORD_0": 21,
            "TEXCOORD_1": 22
          },
          "indices": 23,
          "material": 3,
          "mode": 4
        }
      ]
    },
    {
      "name": "House_Wood2_0",
      "primitives": [
        {
          "attributes": {
            "NORMAL": 25,
            "POSITION": 24,
            "TEXCOORD_0": 26,
            "TEXCOORD_1": 27
          },
          "indices": 28,
          "material": 4,
          "mode": 4
        }
      ]
    },
    {
      "name": "House_Wood5_Doski_porog_0",
      "primitives": [
        {
          "attributes": {
            "NORMAL": 30,
            "POSITION": 29,
            "TANGENT": 31,
            "TEXCOORD_0": 32,
            "TEXCOORD_1": 33
          },
          "indices": 34,
          "material": 5,
          "mode": 4
        }
      ]
    },
    {
      "name": "House_Glass_0",
      "primitives": [
        {
          "attributes": {
            "NORMAL": 36,
            "POSITION": 35,
            "TEXCOORD_0": 37
          },
          "indices": 38,
          "material": 6,
          "mode": 4
        }
      ]
    },
    {
      "name": "House_Metall_0",
      "primitives": [
        {
          "attributes": {
            "NORMAL": 40,
            "POSITION": 39,
            "TEXCOORD_0": 41
          },
          "indices": 42,
          "material": 7,
          "mode": 4
        }
      ]
    }
  ],
  "nodes": [
    {
      "children": [
        1
      ],
      "matrix": [
        1.0,
        0.0,
        0.0,
        0.0,
        0.0,
        2.220446049250313e-16,
        -1.0,
        0.0,
        0.0,
        1.0,
        2.220446049250313e-16,
        0.0,
        0.0,
        0.0,
        0.0,
        1.0
      ],
      "name": "Sketchfab_model"
    },
    {
      "children": [
        2
      ],
      "matrix": [
        1.0,
        0.0,
        0.0,
        0.0,
        0.0,
        0.0,
        1.0,
        0.0,
        0.0,
        -1.0,
        0.0,
        0.0,
        0.0,
        0.0,
        0.0,
        1.0
      ],
      "name": "D_House.FBX"
    },
    {
      "children": [
        3
      ],
      "name": "RootNode"
    },
    {
      "children": [
        4,
        5,
        6,
        7,
        8,
        9,
        10,
        11
      ],
      "matrix": [
        1.0,
        0.0,
        0.0,
        0.0,
        0.0,
        2.220446049250313e-16,
        -1.0,
        0.0,
        0.0,
        1.0,
        2.220446049250313e-16,
        0.0,
        0.0,
        0.0,
        0.0,
        1.0
      ],
      "name": "House"
    },
    {
      "mesh": 0,
      "name": "House_Wood4_Steny_vnutri_0"
    },
    {
      "mesh": 1,
      "name": "House_Wood3_Pol_0"
    },
    {
      "mesh": 2,
      "name": "House_Wood_0"
    },
    {
      "mesh": 3,
      "name": "House_Shifer_0"
    },
    {
      "mesh": 4,
      "name": "House_Wood2_0"
    },
    {
      "mesh": 5,
      "name": "House_Wood5_Doski_porog_0"
    },
    {
      "mesh": 6,
      "name": "House_Glass_0"
    },
    {
      "mesh": 7,
      "name": "House_Metall_0"
    }
  ],
  "samplers": [
    {
      "magFilter": 9729,
      "minFilter": 9987,
      "wrapS": 10497,
      "wrapT": 10497
    }
  ],
  "scene": 0,
  "scenes": [
    {
      "name": "Sketchfab_Scene",
      "nodes": [
        0
      ]
    }
  ],
  "textures": [
    {
      "sampler": 0,
      "source": 0
    },
    {
      "sampler": 0,
      "source": 1
    },
    {
      "sampler": 0,
      "source": 2
    },
    {
      "sampler": 0,
      "source": 3
    },
    {
      "sampler": 0,
      "source": 4
    },
    {
      "sampler": 0,
      "source": 5
    },
    {
      "sampler": 0,
      "source": 6
    },
    {
      "sampler": 0,
      "source": 7
    },
    {
      "sampler": 0,
      "source": 8
    },
    {
      "sampler": 0,
      "source": 9
    },
    {
      "sampler": 0,
      "source": 10
    }
  ]
}
