{
  "accessors": [
    {
      "bufferView": 2,
      "componentType": 5126,
      "count": 168,
      "max": [
        0.8227609992027283,
        1.0206090211868286,
        0.34479600191116333
      ],
      "min": [
        -0.8313080072402954,
        -1.0315109491348267,
        0.06234399974346161
      ],
      "type": "VEC3"
    },
    {
      "bufferView": 2,
      "byteOffset": 2016,
      "componentType": 5126,
      "count": 168,
      "max": [
        1.0,
        1.0,
        1.0
      ],
      "min": [
        -1.0,
        -1.0,
        -1.0
      ],
      "type": "VEC3"
    },
    {
      "bufferView": 3,
      "componentType": 5126,
      "count": 168,
      "max": [
        1.0,
        2.9532167900470085e-05,
        1.0,
        1.0
      ],
      "min": [
        -1.0,
        -3.320527684991248e-05,
        0.0,
        -1.0
      ],
      "type": "VEC4"
    },
    {
      "bufferView": 1,
      "componentType": 5126,
      "count": 168,
      "max": [
        0.9899129867553711,
        0.9775859713554382
      ],
      "min": [
        0.011051000095903873,
        0.01675800047814846
      ],
      "type": "VEC2"
    },
    {
      "bufferView": 0,
      "componentType": 5125,
      "count": 312,
      "type": "SCALAR"
    },
    {
      "bufferView": 2,
      "byteOffset": 4032,
      "componentType": 5126,
      "count": 1186,
      "max": [
        0.8211709856987,
        0.997514009475708,
        0.4154140055179596
      ],
      "min": [
        -0.7997050285339355,
        -1.001297950744629,
        0.19461099803447723
      ],
      "type": "VEC3"
    },
    {
      "bufferView": 2,
      "byteOffset": 18264,
      "componentType": 5126,
      "count": 1186,
      "max": [
        0.9999721050262451,
        0.9999533295631409,
        0.9999995231628418
      ],
      "min": [
        -0.9993230104446411,
        -0.9999682307243347,
        -1.0
      ],
      "type": "VEC3"
    },
    {
      "bufferView": 1,
      "byteOffset": 1344,
      "componentType": 5126,
      "count": 1186,
      "max": [
        0.9980080127716064,
        0.9885510206222534
      ],
      "min": [
        0.0019920000340789557,
        0.0019729998894035816
      ],
      "type": "VEC2"
    },
    {
      "bufferView": 0,
      "byteOffset": 1248,
      "componentType": 5125,
      "count": 6048,
      "type": "SCALAR"
    },
    {
      "bufferView": 2,
      "byteOffset": 32496,
      "componentType": 5126,
      "count": 1519,
      "max": [
        0.8309410214424133,
        0.67848801612854,
        0.5468339920043945
      ],
      "min": [
        -0.822754979133606,
        0.10918600112199783,
        0.3057520091533661
      ],
      "type": "VEC3"
    },
    {
      "bufferView": 2,
      "byteOffset": 50724,
      "componentType": 5126,
      "count": 1519,
      "max": [
        0.9998806715011597,
        0.9997311234474182,
        0.9999632239341736
      ],
      "min": [
        -0.9998653531074524,
        -0.9997361302375793,
        -0.9982520937919617
      ],
      "type": "VEC3"
    },
    {
      "bufferView": 1,
      "byteOffset": 10832,
      "componentType": 5126,
      "count": 1519,
      "max": [
        0.9751120209693909,
        0.9688630104064941
      ],
      "min": [
        0.017240000888705254,
        0.025631999596953392
      ],
      "type": "VEC2"
    },
    {
      "bufferView": 0,
      "byteOffset": 25440,
      "componentType": 5125,
      "count": 8283,
      "type": "SCALAR"
    },
    {
      "bufferView": 2,
      "byteOffset": 68952,
      "componentType": 5126,
      "count": 1455,
      "max": [
        0.8946580290794373,
        -0.9928709864616394,
        0.713267982006073
      ],
      "min": [
        -0.8909419775009155,
        -1.0899419784545898,
        0.013344000093638897
      ],
      "type": "VEC3"
    },
    {
      "bufferView": 2,
      "byteOffset": 86412,
      "componentType": 5126,
      "count": 1455,
      "max": [
        1.0,
        1.0,
        1.0
      ],
      "min": [
        -1.0,
        -1.0,
        -1.0
      ],
      "type": "VEC3"
    },
    {
      "bufferView": 3,
      "byteOffset": 2688,
      "componentType": 5126,
      "count": 1455,
      "max": [
        1.0,
        1.0,
        1.0,
        1.0
      ],
      "min": [
        -1.0,
        -1.0,
        -1.0,
        -1.0
      ],
      "type": "VEC4"
    },
    {
      "bufferView": 1,
      "byteOffset": 22984,
      "componentType": 5126,
      "count": 1455,
      "max": [
        0.9921690225601196,
        0.9890130162239075
      ],
      "min": [
        0.009475000202655792,
        0.01258500013500452
      ],
      "type": "VEC2"
    },
    {
      "bufferView": 0,
      "byteOffset": 58572,
      "componentType": 5125,
      "count": 4344,
      "type": "SCALAR"
    },
    {
      "bufferView": 2,
      "byteOffset": 103872,
      "componentType": 5126,
      "count": 9995,
      "max": [
        0.8914899826049805,
        1.0899419784545898,
        1.165658950805664
      ],
      "min": [
        -0.8946580290794373,
        0.9933379888534546,
        0.06554000079631805
      ],
      "type": "VEC3"
    },
    {
      "bufferView": 2,
      "byteOffset": 223812,
      "componentType": 5126,
      "count": 9995,
      "max": [
        0.9999203681945801,
        1.0,
        0.9998584985733032
      ],
      "min": [
        -0.9999203681945801,
        -1.0,
        -0.9999978542327881
      ],
      "type": "VEC3"
    },
    {
      "bufferView": 3,
      "byteOffset": 25968,
      "componentType": 5126,
      "count": 9995,
      "max": [
        1.0,
        1.0,
        1.0,
        1.0
      ],
      "min": [
        -1.0,
        -1.0,
        -0.4376567304134369,
        -1.0
      ],
      "type": "VEC4"
    },
    {
      "bufferView": 1,
      "byteOffset": 34624,
      "componentType": 5126,
      "count": 9995,
      "max": [
        0.9980080127716064,
        0.9915329813957214
      ],
      "min": [
        0.0019920000340789557,
        0.0021100000012665987
      ],
      "type": "VEC2"
    },
    {
      "bufferView": 0,
      "byteOffset": 75948,
      "componentType": 5125,
      "count": 28446,
      "type": "SCALAR"
    },
    {
      "bufferView": 2,
      "byteOffset": 343752,
      "componentType": 5126,
      "count": 3856,
      "max": [
        0.8914899826049805,
        1.0899419784545898,
        1.165658950805664
      ],
      "min": [
        -0.8946580290794373,
        0.9947500228881836,
        0.013020999729633331
      ],
      "type": "VEC3"
    },
    {
      "bufferView": 2,
      "byteOffset": 390024,
      "componentType": 5126,
      "count": 3856,
      "max": [
        1.0,
        1.0,
        0.9999980926513672
      ],
      "min": [
        -1.0,
        -1.0,
        -0.9999980926513672
      ],
      "type": "VEC3"
    },
    {
      "bufferView": 3,
      "byteOffset": 185888,
      "componentType": 5126,
      "count": 3856,
      "max": [
        1.0,
        1.0,
        0.9999984502792358,
        1.0
      ],
      "min": [
        -0.9999598264694214,
        -1.0,
        -0.9999622106552124,
        -1.0
      ],
      "type": "VEC4"
    },
    {
      "bufferView": 1,
      "byteOffset": 114584,
      "componentType": 5126,
      "count": 3856,
      "max": [
        0.9973220229148865,
        0.9809169769287109
      ],
      "min": [
        0.0019920000340789557,
        0.001978999935090542
      ],
      "type": "VEC2"
    },
    {
      "bufferView": 0,
      "byteOffset": 189732,
      "componentType": 5125,
      "count": 8154,
      "type": "SCALAR"
    },
    {
      "bufferView": 2,
      "byteOffset": 436296,
      "componentType": 5126,
      "count": 890,
      "max": [
        0.6280980110168457,
        1.0280840396881104,
        0.6988530158996582
      ],
      "min": [
        -0.6839519739151001,
        0.576225996017456,
        0.3637239933013916
      ],
      "type": "VEC3"
    },
    {
      "bufferView": 2,
      "byteOffset": 446976,
      "componentType": 5126,
      "count": 890,
      "max": [
        0.9998312592506409,
        0.9989683628082275,
        0.9998390078544617
      ],
      "min": [
        -0.9997369050979614,
        -0.9998324513435364,
        -0.9999998807907104
      ],
      "type": "VEC3"
    },
    {
      "bufferView": 3,
      "byteOffset": 247584,
      "componentType": 5126,
      "count": 890,
      "max": [
        0.6963353753089905,
        0.9998413324356079,
        0.9997010231018066,
        1.0
      ],
      "min": [
        -0.6974427700042725,
        -0.9999120235443115,
        -0.9999195337295532,
        1.0
      ],
      "type": "VEC4"
    },
    {
      "bufferView": 1,
      "byteOffset": 145432,
      "componentType": 5126,
      "count": 890,
      "max": [
        0.9938399791717529,
        0.9745879769325256
      ],
      "min": [
        0.0076790000312030315,
        0.029332999140024185
      ],
      "type": "VEC2"
    },
    {
      "bufferView": 0,
      "byteOffset": 222348,
      "componentType": 5125,
      "count": 4692,
      "type": "SCALAR"
    },
    {
      "bufferView": 2,
      "byteOffset": 457656,
      "componentType": 5126,
      "count": 402,
      "max": [
        0.8057969808578491,
        1.0628060102462769,
        0.21981999278068542
      ],
      "min": [
        -0.8126620054244995,
        -1.008908987045288,
        0.08861300349235535
      ],
      "type": "VEC3"
    },
    {
      "bufferView": 2,
      "byteOffset": 462480,
      "componentType": 5126,
      "count": 402,
      "max": [
        0.9978359937667847,
        1.0,
        0.9988563656806946
      ],
      "min": [
        -0.9978361129760742,
        -1.0,
        -0.9993703365325928
      ],
      "type": "VEC3"
    },
    {
      "bufferView": 1,
      "byteOffset": 152552,
      "componentType": 5126,
      "count": 402,
      "max": [
        0.9887009859085083,
        0.988090991973877
      ],
      "min": [
        0.013663000427186489,
        0.009182999841868877
      ],
      "type": "VEC2"
    },
    {
      "bufferView": 0,
      "byteOffset": 241116,
      "componentType": 5125,
      "count": 1026,
      "type": "SCALAR"
    }
  ],
  "asset": {
    "extras": {
      "author": "Maxmalow (https://sketchfab.com/Maxmalow)",
      "license": "CC-BY-4.0 (http://creativecommons.org/licenses/by/4.0/)",
      "source": "https://sketchfab.com/3d-models/bed-8e77fe0f95e84ca6943e8636bc042570",
      "title": "Bed"
    },
    "generator": "Sketchfab-12.65.0",
    "version": "2.0"
  },
  "bufferViews": [
    {
      "buffer": 0,
      "byteLength": 245220,
      "name": "floatBufferViews",
      "target": 34963
    },
    {
      "buffer": 0,
      "byteLength": 155768,
      "byteOffset": 245220,
      "byteStride": 8,
      "name": "floatBufferViews",
      "target": 34962
    },
    {
      "buffer": 0,
      "byteLength": 467304,
      "byteOffset": 400988,
      "byteStride": 12,
      "name": "floatBufferViews",
      "target": 34962
    },
    {
      "buffer": 0,
      "byteLength": 261824,
      "byteOffset": 868292,
      "byteStride": 16,
      "name": "floatBufferViews",
      "target": 34962
    }
  ],
  "buffers": [
    {
      "byteLength": 1130116,
      "uri": "scene.bin"
    }
  ],
  "images": [
    {
      "uri": "textures/lambert3SG_baseColor.png"
    },
    {
      "uri": "textures/lambert3SG_normal.png"
    },
    {
      "uri": "textures/lambert4SG_baseColor.png"
    },
    {
      "uri": "textures/lambert4SG_metallicRoughness.png"
    },
    {
      "uri": "textures/lambert4SG_normal.png"
    },
    {
      "uri": "textures/lambert5SG_baseColor.png"
    },
    {
      "uri": "textures/lambert5SG_normal.png"
    },
    {
      "uri": "textures/lambert6SG_baseColor.png"
    },
    {
      "uri": "textures/lambert7SG_baseColor.png"
    },
    {
      "uri": "textures/lambert8SG_baseColor.png"
    },
    {
      "uri": "textures/lambert8SG_normal.png"
    },
    {
      "uri": "textures/lambert9SG_baseColor.png"
    }
  ],
  "materials": [
    {
      "doubleSided": true,
      "name": "lambert3SG",
      "normalTexture": {
        "index": 1
      },
      "pbrMetallicRoughness": {
        "baseColorTexture": {
          "index": 0
        },
        "metallicFactor": 0.0,
        "roughnessFactor": 0.5
      }
    },
    {
      "doubleSided": true,
      "name": "lambert4SG",
      "normalTexture": {
        "index": 4
      },
      "pbrMetallicRoughness": {
        "baseColorTexture": {
          "index": 2
        },
        "metallicFactor": 0.0,
        "metallicRoughnessTexture": {
          "index": 3
        },
        "roughnessFactor": 0.5
      }
    },
    {
      "doubleSided": true,
      "name": "lambert5SG",
      "normalTexture": {
        "index": 6
      },
      "pbrMetallicRoughness": {
        "baseColorTexture": {
          "index": 5
        },
        "metallicFactor": 0.0,
        "roughnessFactor": 0.5
      }
    },
    {
      "doubleSided": true,
      "name": "lambert6SG",
      "pbrMetallicRoughness": {
        "baseColorTexture": {
          "index": 7
        },
        "metallicFactor": 0.0
      }
    },
    {
      "doubleSided": true,
      "name": "lambert7SG",
      "pbrMetallicRoughness": {
        "baseColorTexture": {
          "index": 8
        },
        "metallicFactor": 0.0
      }
    },
    {
      "doubleSided": true,
      "name": "lambert8SG",
      "normalTexture": {
        "index": 10
      },
      "pbrMetallicRoughness": {
        "baseColorTexture": {
          "index": 9
        },
        "metallicFactor": 0.0
      }
    },
    {
      "doubleSided": true,
      "name": "lambert9SG",
      "pbrMetallicRoughness": {
        "baseColorTexture": {
          "index": 11
        },
        "metallicFactor": 0.0
      }
    }
  ],
  "meshes": [
    {
      "name": "Object_0",
      "primitives": [
        {
          "attributes": {
            "NORMAL": 1,
            "POSITION": 0,
            "TANGENT": 2,
            "TEXCOORD_0": 3
          },
          "indices": 4,
          "material": 0,
          "mode": 4
        }
      ]
    },
    {
      "name": "Object_1",
      "primitives": [
        {
          "attributes": {
            "NORMAL": 6,
            "POSITION": 5,
            "TEXCOORD_0": 7
          },
          "indices": 8,
          "material": 3,
          "mode": 4
        }
      ]
    },
    {
      "name": "Object_2",
      "primitives": [
        {
          "attributes": {
            "NORMAL": 10,
            "POSITION": 9,
            "TEXCOORD_0": 11
          },
          "indices": 12,
          "material": 4,
          "mode": 4
        }
      ]
    },
    {
      "name": "Object_3",
      "primitives": [
        {
          "attributes": {
            "NORMAL": 14,
            "POSITION": 13,
            "TANGENT": 15,
            "TEXCOORD_0": 16
          },
          "indices": 17,
          "material": 1,
          "mode": 4
        }
      ]
    },
    {
      "name": "Object_4",
      "primitives": [
        {
          "attributes": {
            "NORMAL": 19,
            "POSITION": 18,
            "TANGENT": 20,
            "TEXCOORD_0": 21
          },
          "indices": 22,
          "material": 2,
          "mode": 4
        }
      ]
    },
    {
      "name": "Object_5",
      "primitives": [
        {
          "attributes": {
            "NORMAL": 24,
            "POSITION": 23,
            "TANGENT": 25,
            "TEXCOORD_0": 26
          },
          "indices": 27,
          "material": 2,
          "mode": 4
        }
      ]
    },
    {
      "name": "Object_6",
      "primitives": [
        {
          "attributes": {
            "NORMAL": 29,
            "POSITION": 28,
            "TANGENT": 30,
            "TEXCOORD_0": 31
          },
          "indices": 32,
          "material": 5,
          "mode": 4
        }
      ]
    },
    {
      "name": "Object_7",
      "primitives": [
        {
          "attributes": {
            "NORMAL": 34,
            "POSITION": 33,
            "TEXCOORD_0": 35
          },
          "indices": 36,
          "material": 6,
          "mode": 4
        }
      ]
    }
  ],
  "nodes": [
    {
      "children": [
        1
      ],
      "matrix": [
        1.0,
        0.0,
        0.0,
        0.0,
        0.0,
        2.220446049250313e-16,
        -1.0,
        0.0,
        0.0,
        1.0,
        2.220446049250313e-16,
        0.0,
        0.0,
        0.0,
        0.0,
        1.0
      ],
      "name": "Sketchfab_model"
    },
    {
      "children": [
        2,
        3,
        4,
        5,
        6,
        7,
        8,
        9
      ],
      "name": "Bed_Final.obj.cleaner.materialmerger.gles"
    },
    {
      "mesh": 0,
      "name": "Object_2"
    },
    {
      "mesh": 1,
      "name": "Object_3"
    },
    {
      "mesh": 2,
      "name": "Object_4"
    },
    {
      "mesh": 3,
      "name": "Object_5"
    },
    {
      "mesh": 4,
      "name": "Object_6"
    },
    {
      "mesh": 5,
      "name": "Object_7"
    },
    {
      "mesh": 6,
      "name": "Object_8"
    },
    {
      "mesh": 7,
      "name": "Object_9"
    }
  ],
  "samplers": [
    {
      "magFilter": 9729,
      "minFilter": 9987,
      "wrapS": 10497,
      "wrapT": 10497
    }
  ],
  "scene": 0,
  "scenes": [
    {
      "name": "Sketchfab_Scene",
      "nodes": [
        0
      ]
    }
  ],
  "textures": [
    {
      "sampler": 0,
      "source": 0
    },
    {
      "sampler": 0,
      "source": 1
    },
    {
      "sampler": 0,
      "source": 2
    },
    {
      "sampler": 0,
      "source": 3
    },
    {
      "sampler": 0,
      "source": 4
    },
    {
      "sampler": 0,
      "source": 5
    },
    {
      "sampler": 0,
      "source": 6
    },
    {
      "sampler": 0,
      "source": 7
    },
    {
      "sampler": 0,
      "source": 8
    },
    {
      "sampler": 0,
      "source": 9
    },
    {
      "sampler": 0,
      "source": 10
    },
    {
      "sampler": 0,
      "source": 11
    }
  ]
}
